<?xml version="1.0" encoding="UTF-8"?>
<!DOCTYPE svg PUBLIC "-//W3C//DTD SVG 1.1//EN" "http://www.w3.org/Graphics/SVG/1.1/DTD/svg11.dtd">
<!-- Creator: CorelDRAW -->
<svg xmlns="http://www.w3.org/2000/svg" xml:space="preserve" width="5.69259in" height="5.69259in" version="1.1" style="shape-rendering:geometricPrecision; text-rendering:geometricPrecision; image-rendering:optimizeQuality; fill-rule:evenodd; clip-rule:evenodd"
viewBox="0 0 220.54 220.54"
 xmlns:xlink="http://www.w3.org/1999/xlink"
 xmlns:xodm="http://www.corel.com/coreldraw/odm/2003">
 <defs>
  <style type="text/css">
   <![CDATA[
    .fil1 {fill:#00A651}
    .fil0 {fill:#D71100}
   ]]>
  </style>
 </defs>
 <g id="Layer_x0020_1">
  <metadata id="CorelCorpID_0Corel-Layer"/>
  <path class="fil0" d="M164.68 46.32l0 -0c-4.06,0.18 -8.1,0.74 -12.07,1.7 3.97,-0.95 8.01,-1.52 12.07,-1.7 -0.6,-3.69 -1.57,-7.26 -2.87,-10.67 -1.07,-2.81 -2.36,-5.51 -3.86,-8.08 -4.84,-8.33 -11.8,-15.29 -20.12,-20.13 -8.12,-4.73 -17.54,-7.44 -27.57,-7.44 -0.01,0 -0.01,0 -0.02,0 -10.02,0 -19.43,2.72 -27.55,7.44 -0,0 -0.01,0 -0.01,0 -8.32,4.84 -15.27,11.8 -20.11,20.13 -4.72,8.12 -7.43,17.54 -7.43,27.57l27.55 0 0.01 -0c0,-0.12 0,-0.24 0,-0.36 0.19,-14.81 12.21,-26.9 27,-27.2 0.18,-0 0.37,-0.01 0.55,-0.01 0.01,0 0.01,0 0.02,0 0.19,0 0.38,0 0.57,0.01 14.4,0.3 26.18,11.78 26.95,26.06 4.73,-2.51 9.72,-4.38 14.83,-5.61 3.96,-0.95 8,-1.52 12.06,-1.7z"/>
  <path class="fil1" d="M192.97 110.27l0 0zm-110.28 -27.57l0 -27.55 0 -0.01 -27.55 0c0,0 0,0.01 0,0.01 -0,0 -0.01,0 -0.01,0 -10.03,0 -19.45,2.71 -27.57,7.44 -0,0 -0.01,0 -0.01,0.01 -8.32,4.84 -15.28,11.8 -20.12,20.11 -4.73,8.12 -7.44,17.54 -7.44,27.57 0,10.03 2.71,19.45 7.44,27.57 4.84,8.32 11.8,15.28 20.13,20.12 4.16,2.42 8.65,4.31 13.4,5.58 4.52,1.21 9.27,1.85 14.16,1.85 0,0 0.01,0 0.01,0 0,0 0.01,0 0.01,0 10.02,-0 19.44,-2.72 27.56,-7.44 1.27,-0.74 2.5,-1.52 3.7,-2.35 6.41,-4.44 34.79,-36.81 42.83,-45.32l8.61 -9.11 2.82 -2.98c8.08,-8.55 11.84,-15.46 24.74,-15.48l0 -0.01c0,0 0.01,0 0.01,0 0.16,0 0.32,0 0.48,0l-0.47 0c6.28,0 12.09,2.13 16.73,5.7 6.38,4.9 10.57,12.51 10.82,21.06 0.01,0.27 0.01,0.54 0,0.8 0,0.16 -0,0.32 -0,0.48 -0.26,14.94 -12.56,27.09 -27.57,27.09l-0.01 0 -27.55 0 0 27.55 0 0.01 27.55 0c0,-0 0,-0.01 0,-0.01 0,0 0.01,0 0.01,0 10.03,-0 19.45,-2.71 27.57,-7.44 0,-0 0.01,-0 0.01,-0.01 8.32,-4.84 15.27,-11.79 20.11,-20.11 4.73,-8.12 7.44,-17.54 7.44,-27.57 0,-10.02 -2.71,-19.44 -7.44,-27.57 -4.84,-8.32 -11.8,-15.28 -20.13,-20.13 -4.16,-2.42 -8.65,-4.31 -13.4,-5.58 -4.52,-1.21 -9.27,-1.85 -14.16,-1.85 -0,0 -0.01,0 -0.01,0 -0,0 -0.01,0 -0.01,0 -10.02,0 -19.44,2.72 -27.55,7.44 -6.35,3.69 -14.17,13.43 -19.47,19.04l-1.01 1.07 -7.09 7.5 -0.02 0.02 -18.95 20.05 -8.6 9.1 -2.82 2.99c-8.08,8.55 -11.83,15.46 -24.73,15.47l0 0.01c-0,0 -0.01,0 -0.01,0 -6.39,-0 -12.28,-2.2 -16.97,-5.88 -6.25,-4.9 -10.35,-12.42 -10.6,-20.87 -0.01,-0.27 -0.01,-0.54 -0.01,-0.82l0.01 -0c0,-0.09 0,-0.17 0,-0.26 0.14,-14.89 12.23,-27.05 27.09,-27.31 0.16,-0 0.32,-0 0.48,-0l0.01 0 27.55 0z"/>
  <path class="fil0" d="M55.86 174.22l0 0c4.06,-0.18 8.1,-0.74 12.07,-1.7 -3.97,0.95 -8.01,1.52 -12.07,1.7 0.6,3.69 1.57,7.26 2.87,10.67 1.07,2.81 2.36,5.51 3.86,8.08 4.84,8.33 11.8,15.29 20.12,20.13 8.12,4.73 17.54,7.44 27.57,7.44 0.01,0 0.01,0 0.02,0 10.02,-0 19.43,-2.72 27.55,-7.44 0,-0 0.01,-0 0.01,-0 8.32,-4.84 15.27,-11.8 20.11,-20.13 4.72,-8.12 7.43,-17.54 7.43,-27.57l-27.55 0 -0.01 0c0,0.12 -0,0.24 -0,0.36 -0.19,14.81 -12.21,26.9 -27,27.2 -0.18,0 -0.37,0.01 -0.55,0.01 -0.01,0 -0.01,0 -0.02,0 -0.19,0 -0.38,-0 -0.57,-0.01 -14.4,-0.3 -26.18,-11.78 -26.95,-26.06 -4.73,2.51 -9.72,4.38 -14.83,5.61 -3.96,0.95 -8,1.52 -12.06,1.7z"/>
 </g>
</svg>
